<svg width="256" height="166" viewBox="0 0 256 166" fill="none" xmlns="http://www.w3.org/2000/svg">
<path d="M244.614 127.392C248.462 127.392 251.148 128.497 252.672 130.707C254.234 132.878 255.015 136.707 255.015 142.193C255.015 147.679 254.044 151.546 252.101 153.794C250.196 156.004 246.672 157.109 241.528 157.109C239.928 157.109 237.28 156.956 233.585 156.651L231.985 156.48V115.506H236.214V129.392C239.109 128.059 241.909 127.392 244.614 127.392ZM241.471 153.28C245.205 153.28 247.662 152.442 248.843 150.765C250.062 149.051 250.672 146.174 250.672 142.136C250.672 138.098 250.196 135.278 249.243 133.678C248.291 132.04 246.595 131.221 244.157 131.221C241.947 131.221 239.681 131.64 237.357 132.478L236.214 132.878V152.994C238.69 153.184 240.443 153.28 241.471 153.28Z" fill="#333333"/>
<path d="M223.529 136.593V151.223C223.643 152.632 224.748 153.47 226.843 153.737L226.672 157.109C223.662 157.109 221.395 156.347 219.871 154.823C216.443 156.347 213.014 157.109 209.585 157.109C206.956 157.109 204.956 156.366 203.585 154.88C202.213 153.394 201.527 151.261 201.527 148.479C201.527 145.698 202.232 143.66 203.642 142.365C205.051 141.031 207.261 140.212 210.271 139.907L219.243 139.05V136.593C219.243 134.65 218.824 133.259 217.986 132.421C217.147 131.583 216.005 131.164 214.557 131.164C211.509 131.164 208.347 131.354 205.07 131.735L203.299 131.907L203.127 128.65C207.318 127.811 211.033 127.392 214.271 127.392C217.509 127.392 219.852 128.135 221.3 129.621C222.786 131.107 223.529 133.431 223.529 136.593ZM205.928 148.251C205.928 151.756 207.375 153.508 210.271 153.508C212.861 153.508 215.414 153.07 217.928 152.194L219.243 151.737V142.308L210.785 143.108C209.071 143.26 207.833 143.755 207.071 144.593C206.309 145.432 205.928 146.651 205.928 148.251Z" fill="#333333"/>
<path d="M190.472 156.537V115.506H194.758V156.537H190.472Z" fill="#333333"/>
<path d="M177.51 156.537V150.022H182.196V156.537H177.51Z" fill="#333333"/>
<path fill-rule="evenodd" clip-rule="evenodd" d="M164.047 1.95294H1.95294V164.047H164.047V1.95294ZM166 0V166H0V0H166Z" fill="#333333"/>
<path d="M153.363 155.424H142.358L132.371 143.044L137.427 137.296L153.363 155.424Z" fill="#333333"/>
<path d="M153.162 115.467L118.206 155.424H107.665L142.621 115.467H153.162Z" fill="#333333"/>
<path d="M128.691 127.177L123.649 132.918L108.308 115.467H118.856L128.691 127.177Z" fill="#333333"/>
<path d="M106.42 148.57V155.424H65.2793V115.467H106.35V122.321H73.932V132.26H100.499V138.755H73.932V148.57H106.42Z" fill="#333333"/>
<path d="M61.8347 115.467V155.424H53.1819L21.8633 126.402V155.424H13.2036V115.467H21.8633L53.1819 144.724V115.467H61.8347Z" fill="#333333"/>
</svg>
